<?xml version="1.0" encoding="UTF-8"?>
<svg id="Calque_1" data-name="Calque 1" xmlns="http://www.w3.org/2000/svg" viewBox="0 0 1191.33 1939.29">
  <defs>
    <style>
      .cls-1, .cls-2 {
        stroke-width: 0px;
      }

      .cls-2 {
        fill: #fff;
      }
    </style>
  </defs>
  <path class="cls-2" d="m1191.33,1939.29H0V0h1191.33v1939.29Zm-529.14-636.64c-67.71-26.27-131.6-18.99-193.75,6.05-75.36,30.36-137.73,77.19-170.68,154.25-34.47,80.62,4.64,152.59,91.09,168.43,84.23,15.44,160.07-8.62,227.91-57.59,67.85-48.98,103.57-114.12,103.17-201.07-1.6-349.46-.66-698.94-.67-1048.41,0-5.77.44-11.6-.23-17.29-.41-3.5-2.43-9.66-3.94-9.73-15.86-.7-32.05-1.94-47.45.82-3.25.58-5.23,16.79-5.24,25.8-.26,316.77-.22,633.54-.22,950.31v28.43Z"/>
  <path class="cls-1" d="m662.19,1302.64v-28.43c0-316.77-.04-633.54.22-950.31,0-9.01,1.99-25.21,5.24-25.8,15.41-2.76,31.59-1.53,47.45-.82,1.51.07,3.53,6.23,3.94,9.73.67,5.69.23,11.52.23,17.29,0,349.47-.94,698.95.67,1048.41.4,86.95-35.33,152.09-103.17,201.07-67.84,48.97-143.68,73.03-227.91,57.59-86.45-15.84-125.56-87.81-91.09-168.43,32.95-77.06,95.32-123.89,170.68-154.25,62.15-25.04,126.04-32.33,193.75-6.05Z"/>
</svg>